<?xml version="1.0" encoding="utf-8" standalone="no"?>
<!DOCTYPE svg PUBLIC "-//W3C//DTD SVG 1.1//EN"
  "http://www.w3.org/Graphics/SVG/1.1/DTD/svg11.dtd">
<!-- Created with matplotlib (http://matplotlib.org/) -->
<svg height="319pt" version="1.1" viewBox="0 0 454 319" width="454pt" xmlns="http://www.w3.org/2000/svg" xmlns:xlink="http://www.w3.org/1999/xlink">
 <defs>
  <style type="text/css">
*{stroke-linecap:butt;stroke-linejoin:round;}
  </style>
 </defs>
 <g id="figure_1">
  <g id="patch_1">
   <path d="M 0 319.649375 
L 454.432656 319.649375 
L 454.432656 0 
L 0 0 
z
" style="fill:#ffffff;"/>
  </g>
  <g id="axes_1">
   <g id="patch_2">
    <path d="M 41.972656 287.9 
L 443.732656 287.9 
L 443.732656 10.7 
L 41.972656 10.7 
z
" style="fill:#ffffff;"/>
   </g>
   <g id="matplotlib.axis_1">
    <g id="xtick_1">
     <g id="line2d_1">
      <defs>
       <path d="M 0 0 
L 0 3.5 
" id="m7534b55404" style="stroke:#000000;stroke-width:0.8;"/>
      </defs>
      <g>
       <use style="stroke:#000000;stroke-width:0.8;" x="41.972656" xlink:href="#m7534b55404" y="287.9"/>
      </g>
     </g>
     <g id="text_1">
      <!-- 0.0 -->
      <defs>
       <path d="M 31.78125 66.40625 
Q 24.171875 66.40625 20.328125 58.90625 
Q 16.5 51.421875 16.5 36.375 
Q 16.5 21.390625 20.328125 13.890625 
Q 24.171875 6.390625 31.78125 6.390625 
Q 39.453125 6.390625 43.28125 13.890625 
Q 47.125 21.390625 47.125 36.375 
Q 47.125 51.421875 43.28125 58.90625 
Q 39.453125 66.40625 31.78125 66.40625 
z
M 31.78125 74.21875 
Q 44.046875 74.21875 50.515625 64.515625 
Q 56.984375 54.828125 56.984375 36.375 
Q 56.984375 17.96875 50.515625 8.265625 
Q 44.046875 -1.421875 31.78125 -1.421875 
Q 19.53125 -1.421875 13.0625 8.265625 
Q 6.59375 17.96875 6.59375 36.375 
Q 6.59375 54.828125 13.0625 64.515625 
Q 19.53125 74.21875 31.78125 74.21875 
z
" id="DejaVuSans-30"/>
       <path d="M 10.6875 12.40625 
L 21 12.40625 
L 21 0 
L 10.6875 0 
z
" id="DejaVuSans-2e"/>
      </defs>
      <g transform="translate(36.406562 300.218906)scale(0.07 -0.07)">
       <use xlink:href="#DejaVuSans-30"/>
       <use x="63.623047" xlink:href="#DejaVuSans-2e"/>
       <use x="95.410156" xlink:href="#DejaVuSans-30"/>
      </g>
     </g>
    </g>
    <g id="xtick_2">
     <g id="line2d_2">
      <g>
       <use style="stroke:#000000;stroke-width:0.8;" x="94.835814" xlink:href="#m7534b55404" y="287.9"/>
      </g>
     </g>
     <g id="text_2">
      <!-- 0.5 -->
      <defs>
       <path d="M 10.796875 72.90625 
L 49.515625 72.90625 
L 49.515625 64.59375 
L 19.828125 64.59375 
L 19.828125 46.734375 
Q 21.96875 47.46875 24.109375 47.828125 
Q 26.265625 48.1875 28.421875 48.1875 
Q 40.625 48.1875 47.75 41.5 
Q 54.890625 34.8125 54.890625 23.390625 
Q 54.890625 11.625 47.5625 5.09375 
Q 40.234375 -1.421875 26.90625 -1.421875 
Q 22.3125 -1.421875 17.546875 -0.640625 
Q 12.796875 0.140625 7.71875 1.703125 
L 7.71875 11.625 
Q 12.109375 9.234375 16.796875 8.0625 
Q 21.484375 6.890625 26.703125 6.890625 
Q 35.15625 6.890625 40.078125 11.328125 
Q 45.015625 15.765625 45.015625 23.390625 
Q 45.015625 31 40.078125 35.4375 
Q 35.15625 39.890625 26.703125 39.890625 
Q 22.75 39.890625 18.8125 39.015625 
Q 14.890625 38.140625 10.796875 36.28125 
z
" id="DejaVuSans-35"/>
      </defs>
      <g transform="translate(89.26972 300.218906)scale(0.07 -0.07)">
       <use xlink:href="#DejaVuSans-30"/>
       <use x="63.623047" xlink:href="#DejaVuSans-2e"/>
       <use x="95.410156" xlink:href="#DejaVuSans-35"/>
      </g>
     </g>
    </g>
    <g id="xtick_3">
     <g id="line2d_3">
      <g>
       <use style="stroke:#000000;stroke-width:0.8;" x="147.698972" xlink:href="#m7534b55404" y="287.9"/>
      </g>
     </g>
     <g id="text_3">
      <!-- 1.0 -->
      <defs>
       <path d="M 12.40625 8.296875 
L 28.515625 8.296875 
L 28.515625 63.921875 
L 10.984375 60.40625 
L 10.984375 69.390625 
L 28.421875 72.90625 
L 38.28125 72.90625 
L 38.28125 8.296875 
L 54.390625 8.296875 
L 54.390625 0 
L 12.40625 0 
z
" id="DejaVuSans-31"/>
      </defs>
      <g transform="translate(142.132878 300.218906)scale(0.07 -0.07)">
       <use xlink:href="#DejaVuSans-31"/>
       <use x="63.623047" xlink:href="#DejaVuSans-2e"/>
       <use x="95.410156" xlink:href="#DejaVuSans-30"/>
      </g>
     </g>
    </g>
    <g id="xtick_4">
     <g id="line2d_4">
      <g>
       <use style="stroke:#000000;stroke-width:0.8;" x="200.56213" xlink:href="#m7534b55404" y="287.9"/>
      </g>
     </g>
     <g id="text_4">
      <!-- 1.5 -->
      <g transform="translate(194.996036 300.218906)scale(0.07 -0.07)">
       <use xlink:href="#DejaVuSans-31"/>
       <use x="63.623047" xlink:href="#DejaVuSans-2e"/>
       <use x="95.410156" xlink:href="#DejaVuSans-35"/>
      </g>
     </g>
    </g>
    <g id="xtick_5">
     <g id="line2d_5">
      <g>
       <use style="stroke:#000000;stroke-width:0.8;" x="253.425288" xlink:href="#m7534b55404" y="287.9"/>
      </g>
     </g>
     <g id="text_5">
      <!-- 2.0 -->
      <defs>
       <path d="M 19.1875 8.296875 
L 53.609375 8.296875 
L 53.609375 0 
L 7.328125 0 
L 7.328125 8.296875 
Q 12.9375 14.109375 22.625 23.890625 
Q 32.328125 33.6875 34.8125 36.53125 
Q 39.546875 41.84375 41.421875 45.53125 
Q 43.3125 49.21875 43.3125 52.78125 
Q 43.3125 58.59375 39.234375 62.25 
Q 35.15625 65.921875 28.609375 65.921875 
Q 23.96875 65.921875 18.8125 64.3125 
Q 13.671875 62.703125 7.8125 59.421875 
L 7.8125 69.390625 
Q 13.765625 71.78125 18.9375 73 
Q 24.125 74.21875 28.421875 74.21875 
Q 39.75 74.21875 46.484375 68.546875 
Q 53.21875 62.890625 53.21875 53.421875 
Q 53.21875 48.921875 51.53125 44.890625 
Q 49.859375 40.875 45.40625 35.40625 
Q 44.1875 33.984375 37.640625 27.21875 
Q 31.109375 20.453125 19.1875 8.296875 
z
" id="DejaVuSans-32"/>
      </defs>
      <g transform="translate(247.859194 300.218906)scale(0.07 -0.07)">
       <use xlink:href="#DejaVuSans-32"/>
       <use x="63.623047" xlink:href="#DejaVuSans-2e"/>
       <use x="95.410156" xlink:href="#DejaVuSans-30"/>
      </g>
     </g>
    </g>
    <g id="xtick_6">
     <g id="line2d_6">
      <g>
       <use style="stroke:#000000;stroke-width:0.8;" x="306.288446" xlink:href="#m7534b55404" y="287.9"/>
      </g>
     </g>
     <g id="text_6">
      <!-- 2.5 -->
      <g transform="translate(300.722352 300.218906)scale(0.07 -0.07)">
       <use xlink:href="#DejaVuSans-32"/>
       <use x="63.623047" xlink:href="#DejaVuSans-2e"/>
       <use x="95.410156" xlink:href="#DejaVuSans-35"/>
      </g>
     </g>
    </g>
    <g id="xtick_7">
     <g id="line2d_7">
      <g>
       <use style="stroke:#000000;stroke-width:0.8;" x="359.151604" xlink:href="#m7534b55404" y="287.9"/>
      </g>
     </g>
     <g id="text_7">
      <!-- 3.0 -->
      <defs>
       <path d="M 40.578125 39.3125 
Q 47.65625 37.796875 51.625 33 
Q 55.609375 28.21875 55.609375 21.1875 
Q 55.609375 10.40625 48.1875 4.484375 
Q 40.765625 -1.421875 27.09375 -1.421875 
Q 22.515625 -1.421875 17.65625 -0.515625 
Q 12.796875 0.390625 7.625 2.203125 
L 7.625 11.71875 
Q 11.71875 9.328125 16.59375 8.109375 
Q 21.484375 6.890625 26.8125 6.890625 
Q 36.078125 6.890625 40.9375 10.546875 
Q 45.796875 14.203125 45.796875 21.1875 
Q 45.796875 27.640625 41.28125 31.265625 
Q 36.765625 34.90625 28.71875 34.90625 
L 20.21875 34.90625 
L 20.21875 43.015625 
L 29.109375 43.015625 
Q 36.375 43.015625 40.234375 45.921875 
Q 44.09375 48.828125 44.09375 54.296875 
Q 44.09375 59.90625 40.109375 62.90625 
Q 36.140625 65.921875 28.71875 65.921875 
Q 24.65625 65.921875 20.015625 65.03125 
Q 15.375 64.15625 9.8125 62.3125 
L 9.8125 71.09375 
Q 15.4375 72.65625 20.34375 73.4375 
Q 25.25 74.21875 29.59375 74.21875 
Q 40.828125 74.21875 47.359375 69.109375 
Q 53.90625 64.015625 53.90625 55.328125 
Q 53.90625 49.265625 50.4375 45.09375 
Q 46.96875 40.921875 40.578125 39.3125 
z
" id="DejaVuSans-33"/>
      </defs>
      <g transform="translate(353.58551 300.218906)scale(0.07 -0.07)">
       <use xlink:href="#DejaVuSans-33"/>
       <use x="63.623047" xlink:href="#DejaVuSans-2e"/>
       <use x="95.410156" xlink:href="#DejaVuSans-30"/>
      </g>
     </g>
    </g>
    <g id="xtick_8">
     <g id="line2d_8">
      <g>
       <use style="stroke:#000000;stroke-width:0.8;" x="412.014762" xlink:href="#m7534b55404" y="287.9"/>
      </g>
     </g>
     <g id="text_8">
      <!-- 3.5 -->
      <g transform="translate(406.448668 300.218906)scale(0.07 -0.07)">
       <use xlink:href="#DejaVuSans-33"/>
       <use x="63.623047" xlink:href="#DejaVuSans-2e"/>
       <use x="95.410156" xlink:href="#DejaVuSans-35"/>
      </g>
     </g>
    </g>
    <g id="text_9">
     <!-- Radial Distance from Sgr A* (pc) -->
     <defs>
      <path d="M 44.390625 34.1875 
Q 47.5625 33.109375 50.5625 29.59375 
Q 53.5625 26.078125 56.59375 19.921875 
L 66.609375 0 
L 56 0 
L 46.6875 18.703125 
Q 43.0625 26.03125 39.671875 28.421875 
Q 36.28125 30.8125 30.421875 30.8125 
L 19.671875 30.8125 
L 19.671875 0 
L 9.8125 0 
L 9.8125 72.90625 
L 32.078125 72.90625 
Q 44.578125 72.90625 50.734375 67.671875 
Q 56.890625 62.453125 56.890625 51.90625 
Q 56.890625 45.015625 53.6875 40.46875 
Q 50.484375 35.9375 44.390625 34.1875 
z
M 19.671875 64.796875 
L 19.671875 38.921875 
L 32.078125 38.921875 
Q 39.203125 38.921875 42.84375 42.21875 
Q 46.484375 45.515625 46.484375 51.90625 
Q 46.484375 58.296875 42.84375 61.546875 
Q 39.203125 64.796875 32.078125 64.796875 
z
" id="DejaVuSans-52"/>
      <path d="M 34.28125 27.484375 
Q 23.390625 27.484375 19.1875 25 
Q 14.984375 22.515625 14.984375 16.5 
Q 14.984375 11.71875 18.140625 8.90625 
Q 21.296875 6.109375 26.703125 6.109375 
Q 34.1875 6.109375 38.703125 11.40625 
Q 43.21875 16.703125 43.21875 25.484375 
L 43.21875 27.484375 
z
M 52.203125 31.203125 
L 52.203125 0 
L 43.21875 0 
L 43.21875 8.296875 
Q 40.140625 3.328125 35.546875 0.953125 
Q 30.953125 -1.421875 24.3125 -1.421875 
Q 15.921875 -1.421875 10.953125 3.296875 
Q 6 8.015625 6 15.921875 
Q 6 25.140625 12.171875 29.828125 
Q 18.359375 34.515625 30.609375 34.515625 
L 43.21875 34.515625 
L 43.21875 35.40625 
Q 43.21875 41.609375 39.140625 45 
Q 35.0625 48.390625 27.6875 48.390625 
Q 23 48.390625 18.546875 47.265625 
Q 14.109375 46.140625 10.015625 43.890625 
L 10.015625 52.203125 
Q 14.9375 54.109375 19.578125 55.046875 
Q 24.21875 56 28.609375 56 
Q 40.484375 56 46.34375 49.84375 
Q 52.203125 43.703125 52.203125 31.203125 
z
" id="DejaVuSans-61"/>
      <path d="M 45.40625 46.390625 
L 45.40625 75.984375 
L 54.390625 75.984375 
L 54.390625 0 
L 45.40625 0 
L 45.40625 8.203125 
Q 42.578125 3.328125 38.25 0.953125 
Q 33.9375 -1.421875 27.875 -1.421875 
Q 17.96875 -1.421875 11.734375 6.484375 
Q 5.515625 14.40625 5.515625 27.296875 
Q 5.515625 40.1875 11.734375 48.09375 
Q 17.96875 56 27.875 56 
Q 33.9375 56 38.25 53.625 
Q 42.578125 51.265625 45.40625 46.390625 
z
M 14.796875 27.296875 
Q 14.796875 17.390625 18.875 11.75 
Q 22.953125 6.109375 30.078125 6.109375 
Q 37.203125 6.109375 41.296875 11.75 
Q 45.40625 17.390625 45.40625 27.296875 
Q 45.40625 37.203125 41.296875 42.84375 
Q 37.203125 48.484375 30.078125 48.484375 
Q 22.953125 48.484375 18.875 42.84375 
Q 14.796875 37.203125 14.796875 27.296875 
z
" id="DejaVuSans-64"/>
      <path d="M 9.421875 54.6875 
L 18.40625 54.6875 
L 18.40625 0 
L 9.421875 0 
z
M 9.421875 75.984375 
L 18.40625 75.984375 
L 18.40625 64.59375 
L 9.421875 64.59375 
z
" id="DejaVuSans-69"/>
      <path d="M 9.421875 75.984375 
L 18.40625 75.984375 
L 18.40625 0 
L 9.421875 0 
z
" id="DejaVuSans-6c"/>
      <path id="DejaVuSans-20"/>
      <path d="M 19.671875 64.796875 
L 19.671875 8.109375 
L 31.59375 8.109375 
Q 46.6875 8.109375 53.6875 14.9375 
Q 60.6875 21.78125 60.6875 36.53125 
Q 60.6875 51.171875 53.6875 57.984375 
Q 46.6875 64.796875 31.59375 64.796875 
z
M 9.8125 72.90625 
L 30.078125 72.90625 
Q 51.265625 72.90625 61.171875 64.09375 
Q 71.09375 55.28125 71.09375 36.53125 
Q 71.09375 17.671875 61.125 8.828125 
Q 51.171875 0 30.078125 0 
L 9.8125 0 
z
" id="DejaVuSans-44"/>
      <path d="M 44.28125 53.078125 
L 44.28125 44.578125 
Q 40.484375 46.53125 36.375 47.5 
Q 32.28125 48.484375 27.875 48.484375 
Q 21.1875 48.484375 17.84375 46.4375 
Q 14.5 44.390625 14.5 40.28125 
Q 14.5 37.15625 16.890625 35.375 
Q 19.28125 33.59375 26.515625 31.984375 
L 29.59375 31.296875 
Q 39.15625 29.25 43.1875 25.515625 
Q 47.21875 21.78125 47.21875 15.09375 
Q 47.21875 7.46875 41.1875 3.015625 
Q 35.15625 -1.421875 24.609375 -1.421875 
Q 20.21875 -1.421875 15.453125 -0.5625 
Q 10.6875 0.296875 5.421875 2 
L 5.421875 11.28125 
Q 10.40625 8.6875 15.234375 7.390625 
Q 20.0625 6.109375 24.8125 6.109375 
Q 31.15625 6.109375 34.5625 8.28125 
Q 37.984375 10.453125 37.984375 14.40625 
Q 37.984375 18.0625 35.515625 20.015625 
Q 33.0625 21.96875 24.703125 23.78125 
L 21.578125 24.515625 
Q 13.234375 26.265625 9.515625 29.90625 
Q 5.8125 33.546875 5.8125 39.890625 
Q 5.8125 47.609375 11.28125 51.796875 
Q 16.75 56 26.8125 56 
Q 31.78125 56 36.171875 55.265625 
Q 40.578125 54.546875 44.28125 53.078125 
z
" id="DejaVuSans-73"/>
      <path d="M 18.3125 70.21875 
L 18.3125 54.6875 
L 36.8125 54.6875 
L 36.8125 47.703125 
L 18.3125 47.703125 
L 18.3125 18.015625 
Q 18.3125 11.328125 20.140625 9.421875 
Q 21.96875 7.515625 27.59375 7.515625 
L 36.8125 7.515625 
L 36.8125 0 
L 27.59375 0 
Q 17.1875 0 13.234375 3.875 
Q 9.28125 7.765625 9.28125 18.015625 
L 9.28125 47.703125 
L 2.6875 47.703125 
L 2.6875 54.6875 
L 9.28125 54.6875 
L 9.28125 70.21875 
z
" id="DejaVuSans-74"/>
      <path d="M 54.890625 33.015625 
L 54.890625 0 
L 45.90625 0 
L 45.90625 32.71875 
Q 45.90625 40.484375 42.875 44.328125 
Q 39.84375 48.1875 33.796875 48.1875 
Q 26.515625 48.1875 22.3125 43.546875 
Q 18.109375 38.921875 18.109375 30.90625 
L 18.109375 0 
L 9.078125 0 
L 9.078125 54.6875 
L 18.109375 54.6875 
L 18.109375 46.1875 
Q 21.34375 51.125 25.703125 53.5625 
Q 30.078125 56 35.796875 56 
Q 45.21875 56 50.046875 50.171875 
Q 54.890625 44.34375 54.890625 33.015625 
z
" id="DejaVuSans-6e"/>
      <path d="M 48.78125 52.59375 
L 48.78125 44.1875 
Q 44.96875 46.296875 41.140625 47.34375 
Q 37.3125 48.390625 33.40625 48.390625 
Q 24.65625 48.390625 19.8125 42.84375 
Q 14.984375 37.3125 14.984375 27.296875 
Q 14.984375 17.28125 19.8125 11.734375 
Q 24.65625 6.203125 33.40625 6.203125 
Q 37.3125 6.203125 41.140625 7.25 
Q 44.96875 8.296875 48.78125 10.40625 
L 48.78125 2.09375 
Q 45.015625 0.34375 40.984375 -0.53125 
Q 36.96875 -1.421875 32.421875 -1.421875 
Q 20.0625 -1.421875 12.78125 6.34375 
Q 5.515625 14.109375 5.515625 27.296875 
Q 5.515625 40.671875 12.859375 48.328125 
Q 20.21875 56 33.015625 56 
Q 37.15625 56 41.109375 55.140625 
Q 45.0625 54.296875 48.78125 52.59375 
z
" id="DejaVuSans-63"/>
      <path d="M 56.203125 29.59375 
L 56.203125 25.203125 
L 14.890625 25.203125 
Q 15.484375 15.921875 20.484375 11.0625 
Q 25.484375 6.203125 34.421875 6.203125 
Q 39.59375 6.203125 44.453125 7.46875 
Q 49.3125 8.734375 54.109375 11.28125 
L 54.109375 2.78125 
Q 49.265625 0.734375 44.1875 -0.34375 
Q 39.109375 -1.421875 33.890625 -1.421875 
Q 20.796875 -1.421875 13.15625 6.1875 
Q 5.515625 13.8125 5.515625 26.8125 
Q 5.515625 40.234375 12.765625 48.109375 
Q 20.015625 56 32.328125 56 
Q 43.359375 56 49.78125 48.890625 
Q 56.203125 41.796875 56.203125 29.59375 
z
M 47.21875 32.234375 
Q 47.125 39.59375 43.09375 43.984375 
Q 39.0625 48.390625 32.421875 48.390625 
Q 24.90625 48.390625 20.390625 44.140625 
Q 15.875 39.890625 15.1875 32.171875 
z
" id="DejaVuSans-65"/>
      <path d="M 37.109375 75.984375 
L 37.109375 68.5 
L 28.515625 68.5 
Q 23.6875 68.5 21.796875 66.546875 
Q 19.921875 64.59375 19.921875 59.515625 
L 19.921875 54.6875 
L 34.71875 54.6875 
L 34.71875 47.703125 
L 19.921875 47.703125 
L 19.921875 0 
L 10.890625 0 
L 10.890625 47.703125 
L 2.296875 47.703125 
L 2.296875 54.6875 
L 10.890625 54.6875 
L 10.890625 58.5 
Q 10.890625 67.625 15.140625 71.796875 
Q 19.390625 75.984375 28.609375 75.984375 
z
" id="DejaVuSans-66"/>
      <path d="M 41.109375 46.296875 
Q 39.59375 47.171875 37.8125 47.578125 
Q 36.03125 48 33.890625 48 
Q 26.265625 48 22.1875 43.046875 
Q 18.109375 38.09375 18.109375 28.8125 
L 18.109375 0 
L 9.078125 0 
L 9.078125 54.6875 
L 18.109375 54.6875 
L 18.109375 46.1875 
Q 20.953125 51.171875 25.484375 53.578125 
Q 30.03125 56 36.53125 56 
Q 37.453125 56 38.578125 55.875 
Q 39.703125 55.765625 41.0625 55.515625 
z
" id="DejaVuSans-72"/>
      <path d="M 30.609375 48.390625 
Q 23.390625 48.390625 19.1875 42.75 
Q 14.984375 37.109375 14.984375 27.296875 
Q 14.984375 17.484375 19.15625 11.84375 
Q 23.34375 6.203125 30.609375 6.203125 
Q 37.796875 6.203125 41.984375 11.859375 
Q 46.1875 17.53125 46.1875 27.296875 
Q 46.1875 37.015625 41.984375 42.703125 
Q 37.796875 48.390625 30.609375 48.390625 
z
M 30.609375 56 
Q 42.328125 56 49.015625 48.375 
Q 55.71875 40.765625 55.71875 27.296875 
Q 55.71875 13.875 49.015625 6.21875 
Q 42.328125 -1.421875 30.609375 -1.421875 
Q 18.84375 -1.421875 12.171875 6.21875 
Q 5.515625 13.875 5.515625 27.296875 
Q 5.515625 40.765625 12.171875 48.375 
Q 18.84375 56 30.609375 56 
z
" id="DejaVuSans-6f"/>
      <path d="M 52 44.1875 
Q 55.375 50.25 60.0625 53.125 
Q 64.75 56 71.09375 56 
Q 79.640625 56 84.28125 50.015625 
Q 88.921875 44.046875 88.921875 33.015625 
L 88.921875 0 
L 79.890625 0 
L 79.890625 32.71875 
Q 79.890625 40.578125 77.09375 44.375 
Q 74.3125 48.1875 68.609375 48.1875 
Q 61.625 48.1875 57.5625 43.546875 
Q 53.515625 38.921875 53.515625 30.90625 
L 53.515625 0 
L 44.484375 0 
L 44.484375 32.71875 
Q 44.484375 40.625 41.703125 44.40625 
Q 38.921875 48.1875 33.109375 48.1875 
Q 26.21875 48.1875 22.15625 43.53125 
Q 18.109375 38.875 18.109375 30.90625 
L 18.109375 0 
L 9.078125 0 
L 9.078125 54.6875 
L 18.109375 54.6875 
L 18.109375 46.1875 
Q 21.1875 51.21875 25.484375 53.609375 
Q 29.78125 56 35.6875 56 
Q 41.65625 56 45.828125 52.96875 
Q 50 49.953125 52 44.1875 
z
" id="DejaVuSans-6d"/>
      <path d="M 53.515625 70.515625 
L 53.515625 60.890625 
Q 47.90625 63.578125 42.921875 64.890625 
Q 37.9375 66.21875 33.296875 66.21875 
Q 25.25 66.21875 20.875 63.09375 
Q 16.5 59.96875 16.5 54.203125 
Q 16.5 49.359375 19.40625 46.890625 
Q 22.3125 44.4375 30.421875 42.921875 
L 36.375 41.703125 
Q 47.40625 39.59375 52.65625 34.296875 
Q 57.90625 29 57.90625 20.125 
Q 57.90625 9.515625 50.796875 4.046875 
Q 43.703125 -1.421875 29.984375 -1.421875 
Q 24.8125 -1.421875 18.96875 -0.25 
Q 13.140625 0.921875 6.890625 3.21875 
L 6.890625 13.375 
Q 12.890625 10.015625 18.65625 8.296875 
Q 24.421875 6.59375 29.984375 6.59375 
Q 38.421875 6.59375 43.015625 9.90625 
Q 47.609375 13.234375 47.609375 19.390625 
Q 47.609375 24.75 44.3125 27.78125 
Q 41.015625 30.8125 33.5 32.328125 
L 27.484375 33.5 
Q 16.453125 35.6875 11.515625 40.375 
Q 6.59375 45.0625 6.59375 53.421875 
Q 6.59375 63.09375 13.40625 68.65625 
Q 20.21875 74.21875 32.171875 74.21875 
Q 37.3125 74.21875 42.625 73.28125 
Q 47.953125 72.359375 53.515625 70.515625 
z
" id="DejaVuSans-53"/>
      <path d="M 45.40625 27.984375 
Q 45.40625 37.75 41.375 43.109375 
Q 37.359375 48.484375 30.078125 48.484375 
Q 22.859375 48.484375 18.828125 43.109375 
Q 14.796875 37.75 14.796875 27.984375 
Q 14.796875 18.265625 18.828125 12.890625 
Q 22.859375 7.515625 30.078125 7.515625 
Q 37.359375 7.515625 41.375 12.890625 
Q 45.40625 18.265625 45.40625 27.984375 
z
M 54.390625 6.78125 
Q 54.390625 -7.171875 48.1875 -13.984375 
Q 42 -20.796875 29.203125 -20.796875 
Q 24.46875 -20.796875 20.265625 -20.09375 
Q 16.0625 -19.390625 12.109375 -17.921875 
L 12.109375 -9.1875 
Q 16.0625 -11.328125 19.921875 -12.34375 
Q 23.78125 -13.375 27.78125 -13.375 
Q 36.625 -13.375 41.015625 -8.765625 
Q 45.40625 -4.15625 45.40625 5.171875 
L 45.40625 9.625 
Q 42.625 4.78125 38.28125 2.390625 
Q 33.9375 0 27.875 0 
Q 17.828125 0 11.671875 7.65625 
Q 5.515625 15.328125 5.515625 27.984375 
Q 5.515625 40.671875 11.671875 48.328125 
Q 17.828125 56 27.875 56 
Q 33.9375 56 38.28125 53.609375 
Q 42.625 51.21875 45.40625 46.390625 
L 45.40625 54.6875 
L 54.390625 54.6875 
z
" id="DejaVuSans-67"/>
      <path d="M 34.1875 63.1875 
L 20.796875 26.90625 
L 47.609375 26.90625 
z
M 28.609375 72.90625 
L 39.796875 72.90625 
L 67.578125 0 
L 57.328125 0 
L 50.6875 18.703125 
L 17.828125 18.703125 
L 11.1875 0 
L 0.78125 0 
z
" id="DejaVuSans-41"/>
      <path d="M 47.015625 60.890625 
L 29.5 51.421875 
L 47.015625 41.890625 
L 44.1875 37.109375 
L 27.78125 47.015625 
L 27.78125 28.609375 
L 22.21875 28.609375 
L 22.21875 47.015625 
L 5.8125 37.109375 
L 2.984375 41.890625 
L 20.515625 51.421875 
L 2.984375 60.890625 
L 5.8125 65.71875 
L 22.21875 55.8125 
L 22.21875 74.21875 
L 27.78125 74.21875 
L 27.78125 55.8125 
L 44.1875 65.71875 
z
" id="DejaVuSans-2a"/>
      <path d="M 31 75.875 
Q 24.46875 64.65625 21.28125 53.65625 
Q 18.109375 42.671875 18.109375 31.390625 
Q 18.109375 20.125 21.3125 9.0625 
Q 24.515625 -2 31 -13.1875 
L 23.1875 -13.1875 
Q 15.875 -1.703125 12.234375 9.375 
Q 8.59375 20.453125 8.59375 31.390625 
Q 8.59375 42.28125 12.203125 53.3125 
Q 15.828125 64.359375 23.1875 75.875 
z
" id="DejaVuSans-28"/>
      <path d="M 18.109375 8.203125 
L 18.109375 -20.796875 
L 9.078125 -20.796875 
L 9.078125 54.6875 
L 18.109375 54.6875 
L 18.109375 46.390625 
Q 20.953125 51.265625 25.265625 53.625 
Q 29.59375 56 35.59375 56 
Q 45.5625 56 51.78125 48.09375 
Q 58.015625 40.1875 58.015625 27.296875 
Q 58.015625 14.40625 51.78125 6.484375 
Q 45.5625 -1.421875 35.59375 -1.421875 
Q 29.59375 -1.421875 25.265625 0.953125 
Q 20.953125 3.328125 18.109375 8.203125 
z
M 48.6875 27.296875 
Q 48.6875 37.203125 44.609375 42.84375 
Q 40.53125 48.484375 33.40625 48.484375 
Q 26.265625 48.484375 22.1875 42.84375 
Q 18.109375 37.203125 18.109375 27.296875 
Q 18.109375 17.390625 22.1875 11.75 
Q 26.265625 6.109375 33.40625 6.109375 
Q 40.53125 6.109375 44.609375 11.75 
Q 48.6875 17.390625 48.6875 27.296875 
z
" id="DejaVuSans-70"/>
      <path d="M 8.015625 75.875 
L 15.828125 75.875 
Q 23.140625 64.359375 26.78125 53.3125 
Q 30.421875 42.28125 30.421875 31.390625 
Q 30.421875 20.453125 26.78125 9.375 
Q 23.140625 -1.703125 15.828125 -13.1875 
L 8.015625 -13.1875 
Q 14.5 -2 17.703125 9.0625 
Q 20.90625 20.125 20.90625 31.390625 
Q 20.90625 42.671875 17.703125 53.65625 
Q 14.5 64.65625 8.015625 75.875 
z
" id="DejaVuSans-29"/>
     </defs>
     <g transform="translate(185.974922 310.993594)scale(0.07 -0.07)">
      <use xlink:href="#DejaVuSans-52"/>
      <use x="69.451172" xlink:href="#DejaVuSans-61"/>
      <use x="130.730469" xlink:href="#DejaVuSans-64"/>
      <use x="194.207031" xlink:href="#DejaVuSans-69"/>
      <use x="221.990234" xlink:href="#DejaVuSans-61"/>
      <use x="283.269531" xlink:href="#DejaVuSans-6c"/>
      <use x="311.052734" xlink:href="#DejaVuSans-20"/>
      <use x="342.839844" xlink:href="#DejaVuSans-44"/>
      <use x="419.841797" xlink:href="#DejaVuSans-69"/>
      <use x="447.625" xlink:href="#DejaVuSans-73"/>
      <use x="499.724609" xlink:href="#DejaVuSans-74"/>
      <use x="538.933594" xlink:href="#DejaVuSans-61"/>
      <use x="600.212891" xlink:href="#DejaVuSans-6e"/>
      <use x="663.591797" xlink:href="#DejaVuSans-63"/>
      <use x="718.572266" xlink:href="#DejaVuSans-65"/>
      <use x="780.095703" xlink:href="#DejaVuSans-20"/>
      <use x="811.882812" xlink:href="#DejaVuSans-66"/>
      <use x="847.087891" xlink:href="#DejaVuSans-72"/>
      <use x="888.169922" xlink:href="#DejaVuSans-6f"/>
      <use x="949.351562" xlink:href="#DejaVuSans-6d"/>
      <use x="1046.763672" xlink:href="#DejaVuSans-20"/>
      <use x="1078.550781" xlink:href="#DejaVuSans-53"/>
      <use x="1142.027344" xlink:href="#DejaVuSans-67"/>
      <use x="1205.503906" xlink:href="#DejaVuSans-72"/>
      <use x="1246.617188" xlink:href="#DejaVuSans-20"/>
      <use x="1278.404297" xlink:href="#DejaVuSans-41"/>
      <use x="1346.8125" xlink:href="#DejaVuSans-2a"/>
      <use x="1396.8125" xlink:href="#DejaVuSans-20"/>
      <use x="1428.599609" xlink:href="#DejaVuSans-28"/>
      <use x="1467.613281" xlink:href="#DejaVuSans-70"/>
      <use x="1531.089844" xlink:href="#DejaVuSans-63"/>
      <use x="1586.070312" xlink:href="#DejaVuSans-29"/>
     </g>
    </g>
   </g>
   <g id="matplotlib.axis_2">
    <g id="ytick_1">
     <g id="line2d_9">
      <defs>
       <path d="M 0 0 
L -3.5 0 
" id="ma212312636" style="stroke:#000000;stroke-width:0.8;"/>
      </defs>
      <g>
       <use style="stroke:#000000;stroke-width:0.8;" x="41.972656" xlink:href="#ma212312636" y="287.9"/>
      </g>
     </g>
     <g id="text_10">
      <!-- −0.4 -->
      <defs>
       <path d="M 10.59375 35.5 
L 73.1875 35.5 
L 73.1875 27.203125 
L 10.59375 27.203125 
z
" id="DejaVuSans-2212"/>
       <path d="M 37.796875 64.3125 
L 12.890625 25.390625 
L 37.796875 25.390625 
z
M 35.203125 72.90625 
L 47.609375 72.90625 
L 47.609375 25.390625 
L 58.015625 25.390625 
L 58.015625 17.1875 
L 47.609375 17.1875 
L 47.609375 0 
L 37.796875 0 
L 37.796875 17.1875 
L 4.890625 17.1875 
L 4.890625 26.703125 
z
" id="DejaVuSans-34"/>
      </defs>
      <g transform="translate(17.974687 290.559453)scale(0.07 -0.07)">
       <use xlink:href="#DejaVuSans-2212"/>
       <use x="83.789062" xlink:href="#DejaVuSans-30"/>
       <use x="147.412109" xlink:href="#DejaVuSans-2e"/>
       <use x="179.199219" xlink:href="#DejaVuSans-34"/>
      </g>
     </g>
    </g>
    <g id="ytick_2">
     <g id="line2d_10">
      <g>
       <use style="stroke:#000000;stroke-width:0.8;" x="41.972656" xlink:href="#ma212312636" y="253.25"/>
      </g>
     </g>
     <g id="text_11">
      <!-- −0.2 -->
      <g transform="translate(17.974687 255.909453)scale(0.07 -0.07)">
       <use xlink:href="#DejaVuSans-2212"/>
       <use x="83.789062" xlink:href="#DejaVuSans-30"/>
       <use x="147.412109" xlink:href="#DejaVuSans-2e"/>
       <use x="179.199219" xlink:href="#DejaVuSans-32"/>
      </g>
     </g>
    </g>
    <g id="ytick_3">
     <g id="line2d_11">
      <g>
       <use style="stroke:#000000;stroke-width:0.8;" x="41.972656" xlink:href="#ma212312636" y="218.6"/>
      </g>
     </g>
     <g id="text_12">
      <!-- 0.0 -->
      <g transform="translate(23.840469 221.259453)scale(0.07 -0.07)">
       <use xlink:href="#DejaVuSans-30"/>
       <use x="63.623047" xlink:href="#DejaVuSans-2e"/>
       <use x="95.410156" xlink:href="#DejaVuSans-30"/>
      </g>
     </g>
    </g>
    <g id="ytick_4">
     <g id="line2d_12">
      <g>
       <use style="stroke:#000000;stroke-width:0.8;" x="41.972656" xlink:href="#ma212312636" y="183.95"/>
      </g>
     </g>
     <g id="text_13">
      <!-- 0.2 -->
      <g transform="translate(23.840469 186.609453)scale(0.07 -0.07)">
       <use xlink:href="#DejaVuSans-30"/>
       <use x="63.623047" xlink:href="#DejaVuSans-2e"/>
       <use x="95.410156" xlink:href="#DejaVuSans-32"/>
      </g>
     </g>
    </g>
    <g id="ytick_5">
     <g id="line2d_13">
      <g>
       <use style="stroke:#000000;stroke-width:0.8;" x="41.972656" xlink:href="#ma212312636" y="149.3"/>
      </g>
     </g>
     <g id="text_14">
      <!-- 0.4 -->
      <g transform="translate(23.840469 151.959453)scale(0.07 -0.07)">
       <use xlink:href="#DejaVuSans-30"/>
       <use x="63.623047" xlink:href="#DejaVuSans-2e"/>
       <use x="95.410156" xlink:href="#DejaVuSans-34"/>
      </g>
     </g>
    </g>
    <g id="ytick_6">
     <g id="line2d_14">
      <g>
       <use style="stroke:#000000;stroke-width:0.8;" x="41.972656" xlink:href="#ma212312636" y="114.65"/>
      </g>
     </g>
     <g id="text_15">
      <!-- 0.6 -->
      <defs>
       <path d="M 33.015625 40.375 
Q 26.375 40.375 22.484375 35.828125 
Q 18.609375 31.296875 18.609375 23.390625 
Q 18.609375 15.53125 22.484375 10.953125 
Q 26.375 6.390625 33.015625 6.390625 
Q 39.65625 6.390625 43.53125 10.953125 
Q 47.40625 15.53125 47.40625 23.390625 
Q 47.40625 31.296875 43.53125 35.828125 
Q 39.65625 40.375 33.015625 40.375 
z
M 52.59375 71.296875 
L 52.59375 62.3125 
Q 48.875 64.0625 45.09375 64.984375 
Q 41.3125 65.921875 37.59375 65.921875 
Q 27.828125 65.921875 22.671875 59.328125 
Q 17.53125 52.734375 16.796875 39.40625 
Q 19.671875 43.65625 24.015625 45.921875 
Q 28.375 48.1875 33.59375 48.1875 
Q 44.578125 48.1875 50.953125 41.515625 
Q 57.328125 34.859375 57.328125 23.390625 
Q 57.328125 12.15625 50.6875 5.359375 
Q 44.046875 -1.421875 33.015625 -1.421875 
Q 20.359375 -1.421875 13.671875 8.265625 
Q 6.984375 17.96875 6.984375 36.375 
Q 6.984375 53.65625 15.1875 63.9375 
Q 23.390625 74.21875 37.203125 74.21875 
Q 40.921875 74.21875 44.703125 73.484375 
Q 48.484375 72.75 52.59375 71.296875 
z
" id="DejaVuSans-36"/>
      </defs>
      <g transform="translate(23.840469 117.309453)scale(0.07 -0.07)">
       <use xlink:href="#DejaVuSans-30"/>
       <use x="63.623047" xlink:href="#DejaVuSans-2e"/>
       <use x="95.410156" xlink:href="#DejaVuSans-36"/>
      </g>
     </g>
    </g>
    <g id="ytick_7">
     <g id="line2d_15">
      <g>
       <use style="stroke:#000000;stroke-width:0.8;" x="41.972656" xlink:href="#ma212312636" y="80"/>
      </g>
     </g>
     <g id="text_16">
      <!-- 0.8 -->
      <defs>
       <path d="M 31.78125 34.625 
Q 24.75 34.625 20.71875 30.859375 
Q 16.703125 27.09375 16.703125 20.515625 
Q 16.703125 13.921875 20.71875 10.15625 
Q 24.75 6.390625 31.78125 6.390625 
Q 38.8125 6.390625 42.859375 10.171875 
Q 46.921875 13.96875 46.921875 20.515625 
Q 46.921875 27.09375 42.890625 30.859375 
Q 38.875 34.625 31.78125 34.625 
z
M 21.921875 38.8125 
Q 15.578125 40.375 12.03125 44.71875 
Q 8.5 49.078125 8.5 55.328125 
Q 8.5 64.0625 14.71875 69.140625 
Q 20.953125 74.21875 31.78125 74.21875 
Q 42.671875 74.21875 48.875 69.140625 
Q 55.078125 64.0625 55.078125 55.328125 
Q 55.078125 49.078125 51.53125 44.71875 
Q 48 40.375 41.703125 38.8125 
Q 48.828125 37.15625 52.796875 32.3125 
Q 56.78125 27.484375 56.78125 20.515625 
Q 56.78125 9.90625 50.3125 4.234375 
Q 43.84375 -1.421875 31.78125 -1.421875 
Q 19.734375 -1.421875 13.25 4.234375 
Q 6.78125 9.90625 6.78125 20.515625 
Q 6.78125 27.484375 10.78125 32.3125 
Q 14.796875 37.15625 21.921875 38.8125 
z
M 18.3125 54.390625 
Q 18.3125 48.734375 21.84375 45.5625 
Q 25.390625 42.390625 31.78125 42.390625 
Q 38.140625 42.390625 41.71875 45.5625 
Q 45.3125 48.734375 45.3125 54.390625 
Q 45.3125 60.0625 41.71875 63.234375 
Q 38.140625 66.40625 31.78125 66.40625 
Q 25.390625 66.40625 21.84375 63.234375 
Q 18.3125 60.0625 18.3125 54.390625 
z
" id="DejaVuSans-38"/>
      </defs>
      <g transform="translate(23.840469 82.659453)scale(0.07 -0.07)">
       <use xlink:href="#DejaVuSans-30"/>
       <use x="63.623047" xlink:href="#DejaVuSans-2e"/>
       <use x="95.410156" xlink:href="#DejaVuSans-38"/>
      </g>
     </g>
    </g>
    <g id="ytick_8">
     <g id="line2d_16">
      <g>
       <use style="stroke:#000000;stroke-width:0.8;" x="41.972656" xlink:href="#ma212312636" y="45.35"/>
      </g>
     </g>
     <g id="text_17">
      <!-- 1.0 -->
      <g transform="translate(23.840469 48.009453)scale(0.07 -0.07)">
       <use xlink:href="#DejaVuSans-31"/>
       <use x="63.623047" xlink:href="#DejaVuSans-2e"/>
       <use x="95.410156" xlink:href="#DejaVuSans-30"/>
      </g>
     </g>
    </g>
    <g id="ytick_9">
     <g id="line2d_17">
      <g>
       <use style="stroke:#000000;stroke-width:0.8;" x="41.972656" xlink:href="#ma212312636" y="10.7"/>
      </g>
     </g>
     <g id="text_18">
      <!-- 1.2 -->
      <g transform="translate(23.840469 13.359453)scale(0.07 -0.07)">
       <use xlink:href="#DejaVuSans-31"/>
       <use x="63.623047" xlink:href="#DejaVuSans-2e"/>
       <use x="95.410156" xlink:href="#DejaVuSans-32"/>
      </g>
     </g>
    </g>
    <g id="text_19">
     <!-- HR2 -->
     <defs>
      <path d="M 9.8125 72.90625 
L 19.671875 72.90625 
L 19.671875 43.015625 
L 55.515625 43.015625 
L 55.515625 72.90625 
L 65.375 72.90625 
L 65.375 0 
L 55.515625 0 
L 55.515625 34.71875 
L 19.671875 34.71875 
L 19.671875 0 
L 9.8125 0 
z
" id="DejaVuSans-48"/>
     </defs>
     <g transform="translate(12.518906 156.590937)rotate(-90)scale(0.07 -0.07)">
      <use xlink:href="#DejaVuSans-48"/>
      <use x="75.195312" xlink:href="#DejaVuSans-52"/>
      <use x="144.677734" xlink:href="#DejaVuSans-32"/>
     </g>
    </g>
   </g>
   <g id="LineCollection_1">
    <path clip-path="url(#p3a07ecd53f)" d="M 94.322261 206.318173 
L 94.322261 157.896487 
" style="fill:none;stroke:#1f77b4;stroke-width:3;"/>
    <path clip-path="url(#p3a07ecd53f)" d="M 65.545343 239.208453 
L 65.545343 201.488424 
" style="fill:none;stroke:#1f77b4;stroke-width:3;"/>
    <path clip-path="url(#p3a07ecd53f)" d="M 92.555069 166.802923 
L 92.555069 111.331853 
" style="fill:none;stroke:#1f77b4;stroke-width:3;"/>
    <path clip-path="url(#p3a07ecd53f)" d="M 74.89677 223.777521 
L 74.89677 190.28491 
" style="fill:none;stroke:#1f77b4;stroke-width:3;"/>
    <path clip-path="url(#p3a07ecd53f)" d="M 85.557194 208.565104 
L 85.557194 157.074831 
" style="fill:none;stroke:#1f77b4;stroke-width:3;"/>
    <path clip-path="url(#p3a07ecd53f)" d="M 82.258701 200.962271 
L 82.258701 142.36724 
" style="fill:none;stroke:#1f77b4;stroke-width:3;"/>
    <path clip-path="url(#p3a07ecd53f)" d="M 89.285149 102.193392 
L 89.285149 -1 
" style="fill:none;stroke:#1f77b4;stroke-width:3;"/>
    <path clip-path="url(#p3a07ecd53f)" d="M 108.812414 141.049056 
L 108.812414 107.218763 
" style="fill:none;stroke:#1f77b4;stroke-width:3;"/>
    <path clip-path="url(#p3a07ecd53f)" d="M 117.776597 268.557169 
L 117.776597 215.252811 
" style="fill:none;stroke:#1f77b4;stroke-width:3;"/>
    <path clip-path="url(#p3a07ecd53f)" d="M 102.947561 225.555427 
L 102.947561 196.18792 
" style="fill:none;stroke:#1f77b4;stroke-width:3;"/>
    <path clip-path="url(#p3a07ecd53f)" d="M 100.809815 290.916132 
L 100.809815 224.853833 
" style="fill:none;stroke:#1f77b4;stroke-width:3;"/>
    <path clip-path="url(#p3a07ecd53f)" d="M 101.028461 162.163239 
L 101.028461 104.853 
" style="fill:none;stroke:#1f77b4;stroke-width:3;"/>
    <path clip-path="url(#p3a07ecd53f)" d="M 108.161444 153.860263 
L 108.161444 111.492706 
" style="fill:none;stroke:#1f77b4;stroke-width:3;"/>
    <path clip-path="url(#p3a07ecd53f)" d="M 114.673927 182.592042 
L 114.673927 135.726241 
" style="fill:none;stroke:#1f77b4;stroke-width:3;"/>
    <path clip-path="url(#p3a07ecd53f)" d="M 100.724529 136.92043 
L 100.724529 100.491073 
" style="fill:none;stroke:#1f77b4;stroke-width:3;"/>
    <path clip-path="url(#p3a07ecd53f)" d="M 95.374679 191.13497 
L 95.374679 162.469738 
" style="fill:none;stroke:#1f77b4;stroke-width:3;"/>
    <path clip-path="url(#p3a07ecd53f)" d="M 95.729409 237.33124 
L 95.729409 185.998177 
" style="fill:none;stroke:#1f77b4;stroke-width:3;"/>
    <path clip-path="url(#p3a07ecd53f)" d="M 103.350628 247.097035 
L 103.350628 213.883038 
" style="fill:none;stroke:#1f77b4;stroke-width:3;"/>
    <path clip-path="url(#p3a07ecd53f)" d="M 108.316232 237.995038 
L 108.316232 162.104025 
" style="fill:none;stroke:#1f77b4;stroke-width:3;"/>
    <path clip-path="url(#p3a07ecd53f)" d="M 112.917884 232.068798 
L 112.917884 180.241266 
" style="fill:none;stroke:#1f77b4;stroke-width:3;"/>
    <path clip-path="url(#p3a07ecd53f)" d="M 111.917364 183.997458 
L 111.917364 147.596135 
" style="fill:none;stroke:#1f77b4;stroke-width:3;"/>
    <path clip-path="url(#p3a07ecd53f)" d="M 128.090104 136.568949 
L 128.090104 113.022976 
" style="fill:none;stroke:#1f77b4;stroke-width:3;"/>
    <path clip-path="url(#p3a07ecd53f)" d="M 135.881861 198.091885 
L 135.881861 145.423782 
" style="fill:none;stroke:#1f77b4;stroke-width:3;"/>
    <path clip-path="url(#p3a07ecd53f)" d="M 142.331959 156.143229 
L 142.331959 97.899254 
" style="fill:none;stroke:#1f77b4;stroke-width:3;"/>
    <path clip-path="url(#p3a07ecd53f)" d="M 118.487038 214.857448 
L 118.487038 180.841628 
" style="fill:none;stroke:#1f77b4;stroke-width:3;"/>
    <path clip-path="url(#p3a07ecd53f)" d="M 135.951477 149.967 
L 135.951477 137.445025 
" style="fill:none;stroke:#1f77b4;stroke-width:3;"/>
    <path clip-path="url(#p3a07ecd53f)" d="M 123.844735 114.616471 
L 123.844735 34.48142 
" style="fill:none;stroke:#1f77b4;stroke-width:3;"/>
    <path clip-path="url(#p3a07ecd53f)" d="M 132.57162 214.532921 
L 132.57162 164.922984 
" style="fill:none;stroke:#1f77b4;stroke-width:3;"/>
    <path clip-path="url(#p3a07ecd53f)" d="M 116.845512 208.016651 
L 116.845512 147.183725 
" style="fill:none;stroke:#1f77b4;stroke-width:3;"/>
    <path clip-path="url(#p3a07ecd53f)" d="M 127.793581 112.588979 
L 127.793581 105.223292 
" style="fill:none;stroke:#1f77b4;stroke-width:3;"/>
    <path clip-path="url(#p3a07ecd53f)" d="M 121.100183 144.726973 
L 121.100183 116.588695 
" style="fill:none;stroke:#1f77b4;stroke-width:3;"/>
    <path clip-path="url(#p3a07ecd53f)" d="M 136.290662 164.163514 
L 136.290662 138.530106 
" style="fill:none;stroke:#1f77b4;stroke-width:3;"/>
    <path clip-path="url(#p3a07ecd53f)" d="M 161.288712 123.80883 
L 161.288712 119.006533 
" style="fill:none;stroke:#1f77b4;stroke-width:3;"/>
    <path clip-path="url(#p3a07ecd53f)" d="M 155.899503 141.137008 
L 155.899503 108.447316 
" style="fill:none;stroke:#1f77b4;stroke-width:3;"/>
    <path clip-path="url(#p3a07ecd53f)" d="M 153.117682 144.696735 
L 153.117682 126.945643 
" style="fill:none;stroke:#1f77b4;stroke-width:3;"/>
    <path clip-path="url(#p3a07ecd53f)" d="M 158.915685 125.769914 
L 158.915685 91.114997 
" style="fill:none;stroke:#1f77b4;stroke-width:3;"/>
    <path clip-path="url(#p3a07ecd53f)" d="M 145.554297 155.278711 
L 145.554297 113.931631 
" style="fill:none;stroke:#1f77b4;stroke-width:3;"/>
    <path clip-path="url(#p3a07ecd53f)" d="M 156.307676 145.350866 
L 156.307676 73.954494 
" style="fill:none;stroke:#1f77b4;stroke-width:3;"/>
    <path clip-path="url(#p3a07ecd53f)" d="M 148.640326 161.961407 
L 148.640326 114.999111 
" style="fill:none;stroke:#1f77b4;stroke-width:3;"/>
    <path clip-path="url(#p3a07ecd53f)" d="M 163.261206 97.587045 
L 163.261206 72.517415 
" style="fill:none;stroke:#1f77b4;stroke-width:3;"/>
    <path clip-path="url(#p3a07ecd53f)" d="M 163.682653 123.848129 
L 163.682653 76.805912 
" style="fill:none;stroke:#1f77b4;stroke-width:3;"/>
    <path clip-path="url(#p3a07ecd53f)" d="M 186.120894 147.038069 
L 186.120894 111.477876 
" style="fill:none;stroke:#1f77b4;stroke-width:3;"/>
    <path clip-path="url(#p3a07ecd53f)" d="M 175.446368 119.693398 
L 175.446368 93.640723 
" style="fill:none;stroke:#1f77b4;stroke-width:3;"/>
    <path clip-path="url(#p3a07ecd53f)" d="M 198.420111 150.223844 
L 198.420111 112.908028 
" style="fill:none;stroke:#1f77b4;stroke-width:3;"/>
    <path clip-path="url(#p3a07ecd53f)" d="M 173.043042 131.09062 
L 173.043042 118.290747 
" style="fill:none;stroke:#1f77b4;stroke-width:3;"/>
    <path clip-path="url(#p3a07ecd53f)" d="M 174.685764 126.859439 
L 174.685764 95.616364 
" style="fill:none;stroke:#1f77b4;stroke-width:3;"/>
    <path clip-path="url(#p3a07ecd53f)" d="M 171.588078 173.541461 
L 171.588078 133.602533 
" style="fill:none;stroke:#1f77b4;stroke-width:3;"/>
    <path clip-path="url(#p3a07ecd53f)" d="M 171.152528 161.397188 
L 171.152528 107.80227 
" style="fill:none;stroke:#1f77b4;stroke-width:3;"/>
    <path clip-path="url(#p3a07ecd53f)" d="M 218.555341 129.468933 
L 218.555341 104.218977 
" style="fill:none;stroke:#1f77b4;stroke-width:3;"/>
    <path clip-path="url(#p3a07ecd53f)" d="M 220.545262 119.430647 
L 220.545262 98.631319 
" style="fill:none;stroke:#1f77b4;stroke-width:3;"/>
    <path clip-path="url(#p3a07ecd53f)" d="M 224.626778 132.093352 
L 224.626778 77.714288 
" style="fill:none;stroke:#1f77b4;stroke-width:3;"/>
    <path clip-path="url(#p3a07ecd53f)" d="M 234.805496 138.277461 
L 234.805496 104.468177 
" style="fill:none;stroke:#1f77b4;stroke-width:3;"/>
    <path clip-path="url(#p3a07ecd53f)" d="M 228.903568 136.447334 
L 228.903568 80.265578 
" style="fill:none;stroke:#1f77b4;stroke-width:3;"/>
    <path clip-path="url(#p3a07ecd53f)" d="M 229.58267 162.490081 
L 229.58267 114.972512 
" style="fill:none;stroke:#1f77b4;stroke-width:3;"/>
    <path clip-path="url(#p3a07ecd53f)" d="M 240.574795 96.541137 
L 240.574795 33.81892 
" style="fill:none;stroke:#1f77b4;stroke-width:3;"/>
    <path clip-path="url(#p3a07ecd53f)" d="M 243.908809 181.484904 
L 243.908809 129.483954 
" style="fill:none;stroke:#1f77b4;stroke-width:3;"/>
    <path clip-path="url(#p3a07ecd53f)" d="M 226.809333 147.246818 
L 226.809333 111.944894 
" style="fill:none;stroke:#1f77b4;stroke-width:3;"/>
    <path clip-path="url(#p3a07ecd53f)" d="M 251.950924 123.741813 
L 251.950924 72.191404 
" style="fill:none;stroke:#1f77b4;stroke-width:3;"/>
    <path clip-path="url(#p3a07ecd53f)" d="M 248.196857 135.610343 
L 248.196857 84.680786 
" style="fill:none;stroke:#1f77b4;stroke-width:3;"/>
    <path clip-path="url(#p3a07ecd53f)" d="M 281.019107 169.480724 
L 281.019107 119.376836 
" style="fill:none;stroke:#1f77b4;stroke-width:3;"/>
    <path clip-path="url(#p3a07ecd53f)" d="M 280.89163 114.83991 
L 280.89163 59.202026 
" style="fill:none;stroke:#1f77b4;stroke-width:3;"/>
    <path clip-path="url(#p3a07ecd53f)" d="M 286.606328 115.415612 
L 286.606328 80.709802 
" style="fill:none;stroke:#1f77b4;stroke-width:3;"/>
    <path clip-path="url(#p3a07ecd53f)" d="M 268.242711 127.495266 
L 268.242711 85.84375 
" style="fill:none;stroke:#1f77b4;stroke-width:3;"/>
    <path clip-path="url(#p3a07ecd53f)" d="M 273.826898 134.888809 
L 273.826898 97.206919 
" style="fill:none;stroke:#1f77b4;stroke-width:3;"/>
    <path clip-path="url(#p3a07ecd53f)" d="M 275.952246 114.022903 
L 275.952246 56.31855 
" style="fill:none;stroke:#1f77b4;stroke-width:3;"/>
    <path clip-path="url(#p3a07ecd53f)" d="M 288.066261 128.94527 
L 288.066261 103.714553 
" style="fill:none;stroke:#1f77b4;stroke-width:3;"/>
    <path clip-path="url(#p3a07ecd53f)" d="M 284.702163 164.418895 
L 284.702163 114.015958 
" style="fill:none;stroke:#1f77b4;stroke-width:3;"/>
    <path clip-path="url(#p3a07ecd53f)" d="M 306.814091 120.101885 
L 306.814091 104.263174 
" style="fill:none;stroke:#1f77b4;stroke-width:3;"/>
    <path clip-path="url(#p3a07ecd53f)" d="M 298.215243 186.155188 
L 298.215243 139.063163 
" style="fill:none;stroke:#1f77b4;stroke-width:3;"/>
    <path clip-path="url(#p3a07ecd53f)" d="M 292.609664 120.736634 
L 292.609664 76.863446 
" style="fill:none;stroke:#1f77b4;stroke-width:3;"/>
    <path clip-path="url(#p3a07ecd53f)" d="M 321.010909 137.184233 
L 321.010909 89.539854 
" style="fill:none;stroke:#1f77b4;stroke-width:3;"/>
    <path clip-path="url(#p3a07ecd53f)" d="M 318.39816 148.259212 
L 318.39816 104.094144 
" style="fill:none;stroke:#1f77b4;stroke-width:3;"/>
    <path clip-path="url(#p3a07ecd53f)" d="M 319.623231 153.454461 
L 319.623231 121.203845 
" style="fill:none;stroke:#1f77b4;stroke-width:3;"/>
    <path clip-path="url(#p3a07ecd53f)" d="M 315.61731 136.673541 
L 315.61731 89.335332 
" style="fill:none;stroke:#1f77b4;stroke-width:3;"/>
    <path clip-path="url(#p3a07ecd53f)" d="M 312.943679 127.748729 
L 312.943679 85.181336 
" style="fill:none;stroke:#1f77b4;stroke-width:3;"/>
    <path clip-path="url(#p3a07ecd53f)" d="M 288.066261 133.576526 
L 288.066261 108.539732 
" style="fill:none;stroke:#1f77b4;stroke-width:3;"/>
    <path clip-path="url(#p3a07ecd53f)" d="M 365.330646 128.05982 
L 365.330646 87.526987 
" style="fill:none;stroke:#1f77b4;stroke-width:3;"/>
    <path clip-path="url(#p3a07ecd53f)" d="M 355.081486 157.414529 
L 355.081486 109.320561 
" style="fill:none;stroke:#1f77b4;stroke-width:3;"/>
    <path clip-path="url(#p3a07ecd53f)" d="M 352.101183 126.867157 
L 352.101183 78.727084 
" style="fill:none;stroke:#1f77b4;stroke-width:3;"/>
    <path clip-path="url(#p3a07ecd53f)" d="M 349.625626 138.292736 
L 349.625626 92.949568 
" style="fill:none;stroke:#1f77b4;stroke-width:3;"/>
    <path clip-path="url(#p3a07ecd53f)" d="M 334.33822 141.204428 
L 334.33822 87.043747 
" style="fill:none;stroke:#1f77b4;stroke-width:3;"/>
    <path clip-path="url(#p3a07ecd53f)" style="fill:none;stroke:#1f77b4;stroke-width:3;"/>
    <path clip-path="url(#p3a07ecd53f)" d="M 345.250099 139.769137 
L 345.250099 97.551761 
" style="fill:none;stroke:#1f77b4;stroke-width:3;"/>
    <path clip-path="url(#p3a07ecd53f)" d="M 358.836062 111.416203 
L 358.836062 69.861019 
" style="fill:none;stroke:#1f77b4;stroke-width:3;"/>
    <path clip-path="url(#p3a07ecd53f)" d="M 340.837786 140.289103 
L 340.837786 107.015708 
" style="fill:none;stroke:#1f77b4;stroke-width:3;"/>
    <path clip-path="url(#p3a07ecd53f)" d="M 339.770787 89.774829 
L 339.770787 53.040768 
" style="fill:none;stroke:#1f77b4;stroke-width:3;"/>
    <path clip-path="url(#p3a07ecd53f)" d="M 332.244674 93.750181 
L 332.244674 77.161482 
" style="fill:none;stroke:#1f77b4;stroke-width:3;"/>
    <path clip-path="url(#p3a07ecd53f)" d="M 356.361132 180.531299 
L 356.361132 126.260385 
" style="fill:none;stroke:#1f77b4;stroke-width:3;"/>
    <path clip-path="url(#p3a07ecd53f)" d="M 347.881324 200.009469 
L 347.881324 147.012046 
" style="fill:none;stroke:#1f77b4;stroke-width:3;"/>
    <path clip-path="url(#p3a07ecd53f)" d="M 350.494103 151.841862 
L 350.494103 142.289805 
" style="fill:none;stroke:#1f77b4;stroke-width:3;"/>
    <path clip-path="url(#p3a07ecd53f)" d="M 374.194882 136.104138 
L 374.194882 81.611457 
" style="fill:none;stroke:#1f77b4;stroke-width:3;"/>
    <path clip-path="url(#p3a07ecd53f)" d="M 410.7271 84.528259 
L 410.7271 64.499061 
" style="fill:none;stroke:#1f77b4;stroke-width:3;"/>
    <path clip-path="url(#p3a07ecd53f)" d="M 395.10904 113.09102 
L 395.10904 106.969002 
" style="fill:none;stroke:#1f77b4;stroke-width:3;"/>
    <path clip-path="url(#p3a07ecd53f)" d="M 383.208714 119.786333 
L 383.208714 101.746929 
" style="fill:none;stroke:#1f77b4;stroke-width:3;"/>
    <path clip-path="url(#p3a07ecd53f)" d="M 398.926482 143.207504 
L 398.926482 127.410609 
" style="fill:none;stroke:#1f77b4;stroke-width:3;"/>
    <path clip-path="url(#p3a07ecd53f)" d="M 402.280279 320.649375 
L 402.280279 300.140637 
" style="fill:none;stroke:#1f77b4;stroke-width:3;"/>
    <path clip-path="url(#p3a07ecd53f)" d="M 375.949736 117.872631 
L 375.949736 92.273037 
" style="fill:none;stroke:#1f77b4;stroke-width:3;"/>
    <path clip-path="url(#p3a07ecd53f)" d="M 398.356562 104.631839 
L 398.356562 53.751336 
" style="fill:none;stroke:#1f77b4;stroke-width:3;"/>
    <path clip-path="url(#p3a07ecd53f)" d="M 372.910776 182.087092 
L 372.910776 144.700939 
" style="fill:none;stroke:#1f77b4;stroke-width:3;"/>
    <path clip-path="url(#p3a07ecd53f)" d="M 430.730511 182.832584 
L 430.730511 140.574797 
" style="fill:none;stroke:#1f77b4;stroke-width:3;"/>
    <path clip-path="url(#p3a07ecd53f)" d="M 415.799128 133.458909 
L 415.799128 85.801325 
" style="fill:none;stroke:#1f77b4;stroke-width:3;"/>
   </g>
   <g id="line2d_18">
    <defs>
     <path d="M 5 0 
L -5 -0 
" id="mafda682e8a" style="stroke:#1f77b4;stroke-width:3;"/>
    </defs>
    <g clip-path="url(#p3a07ecd53f)">
     <use style="fill:#1f77b4;stroke:#1f77b4;stroke-width:3;" x="94.322261" xlink:href="#mafda682e8a" y="206.318173"/>
     <use style="fill:#1f77b4;stroke:#1f77b4;stroke-width:3;" x="65.545343" xlink:href="#mafda682e8a" y="239.208453"/>
     <use style="fill:#1f77b4;stroke:#1f77b4;stroke-width:3;" x="92.555069" xlink:href="#mafda682e8a" y="166.802923"/>
     <use style="fill:#1f77b4;stroke:#1f77b4;stroke-width:3;" x="74.89677" xlink:href="#mafda682e8a" y="223.777521"/>
     <use style="fill:#1f77b4;stroke:#1f77b4;stroke-width:3;" x="85.557194" xlink:href="#mafda682e8a" y="208.565104"/>
     <use style="fill:#1f77b4;stroke:#1f77b4;stroke-width:3;" x="82.258701" xlink:href="#mafda682e8a" y="200.962271"/>
     <use style="fill:#1f77b4;stroke:#1f77b4;stroke-width:3;" x="89.285149" xlink:href="#mafda682e8a" y="102.193392"/>
     <use style="fill:#1f77b4;stroke:#1f77b4;stroke-width:3;" x="108.812414" xlink:href="#mafda682e8a" y="141.049056"/>
     <use style="fill:#1f77b4;stroke:#1f77b4;stroke-width:3;" x="117.776597" xlink:href="#mafda682e8a" y="268.557169"/>
     <use style="fill:#1f77b4;stroke:#1f77b4;stroke-width:3;" x="102.947561" xlink:href="#mafda682e8a" y="225.555427"/>
     <use style="fill:#1f77b4;stroke:#1f77b4;stroke-width:3;" x="100.809815" xlink:href="#mafda682e8a" y="290.916132"/>
     <use style="fill:#1f77b4;stroke:#1f77b4;stroke-width:3;" x="101.028461" xlink:href="#mafda682e8a" y="162.163239"/>
     <use style="fill:#1f77b4;stroke:#1f77b4;stroke-width:3;" x="108.161444" xlink:href="#mafda682e8a" y="153.860263"/>
     <use style="fill:#1f77b4;stroke:#1f77b4;stroke-width:3;" x="114.673927" xlink:href="#mafda682e8a" y="182.592042"/>
     <use style="fill:#1f77b4;stroke:#1f77b4;stroke-width:3;" x="100.724529" xlink:href="#mafda682e8a" y="136.92043"/>
     <use style="fill:#1f77b4;stroke:#1f77b4;stroke-width:3;" x="95.374679" xlink:href="#mafda682e8a" y="191.13497"/>
     <use style="fill:#1f77b4;stroke:#1f77b4;stroke-width:3;" x="95.729409" xlink:href="#mafda682e8a" y="237.33124"/>
     <use style="fill:#1f77b4;stroke:#1f77b4;stroke-width:3;" x="103.350628" xlink:href="#mafda682e8a" y="247.097035"/>
     <use style="fill:#1f77b4;stroke:#1f77b4;stroke-width:3;" x="108.316232" xlink:href="#mafda682e8a" y="237.995038"/>
     <use style="fill:#1f77b4;stroke:#1f77b4;stroke-width:3;" x="112.917884" xlink:href="#mafda682e8a" y="232.068798"/>
     <use style="fill:#1f77b4;stroke:#1f77b4;stroke-width:3;" x="111.917364" xlink:href="#mafda682e8a" y="183.997458"/>
     <use style="fill:#1f77b4;stroke:#1f77b4;stroke-width:3;" x="128.090104" xlink:href="#mafda682e8a" y="136.568949"/>
     <use style="fill:#1f77b4;stroke:#1f77b4;stroke-width:3;" x="135.881861" xlink:href="#mafda682e8a" y="198.091885"/>
     <use style="fill:#1f77b4;stroke:#1f77b4;stroke-width:3;" x="142.331959" xlink:href="#mafda682e8a" y="156.143229"/>
     <use style="fill:#1f77b4;stroke:#1f77b4;stroke-width:3;" x="118.487038" xlink:href="#mafda682e8a" y="214.857448"/>
     <use style="fill:#1f77b4;stroke:#1f77b4;stroke-width:3;" x="135.951477" xlink:href="#mafda682e8a" y="149.967"/>
     <use style="fill:#1f77b4;stroke:#1f77b4;stroke-width:3;" x="123.844735" xlink:href="#mafda682e8a" y="114.616471"/>
     <use style="fill:#1f77b4;stroke:#1f77b4;stroke-width:3;" x="132.57162" xlink:href="#mafda682e8a" y="214.532921"/>
     <use style="fill:#1f77b4;stroke:#1f77b4;stroke-width:3;" x="116.845512" xlink:href="#mafda682e8a" y="208.016651"/>
     <use style="fill:#1f77b4;stroke:#1f77b4;stroke-width:3;" x="127.793581" xlink:href="#mafda682e8a" y="112.588979"/>
     <use style="fill:#1f77b4;stroke:#1f77b4;stroke-width:3;" x="121.100183" xlink:href="#mafda682e8a" y="144.726973"/>
     <use style="fill:#1f77b4;stroke:#1f77b4;stroke-width:3;" x="136.290662" xlink:href="#mafda682e8a" y="164.163514"/>
     <use style="fill:#1f77b4;stroke:#1f77b4;stroke-width:3;" x="161.288712" xlink:href="#mafda682e8a" y="123.80883"/>
     <use style="fill:#1f77b4;stroke:#1f77b4;stroke-width:3;" x="155.899503" xlink:href="#mafda682e8a" y="141.137008"/>
     <use style="fill:#1f77b4;stroke:#1f77b4;stroke-width:3;" x="153.117682" xlink:href="#mafda682e8a" y="144.696735"/>
     <use style="fill:#1f77b4;stroke:#1f77b4;stroke-width:3;" x="158.915685" xlink:href="#mafda682e8a" y="125.769914"/>
     <use style="fill:#1f77b4;stroke:#1f77b4;stroke-width:3;" x="145.554297" xlink:href="#mafda682e8a" y="155.278711"/>
     <use style="fill:#1f77b4;stroke:#1f77b4;stroke-width:3;" x="156.307676" xlink:href="#mafda682e8a" y="145.350866"/>
     <use style="fill:#1f77b4;stroke:#1f77b4;stroke-width:3;" x="148.640326" xlink:href="#mafda682e8a" y="161.961407"/>
     <use style="fill:#1f77b4;stroke:#1f77b4;stroke-width:3;" x="163.261206" xlink:href="#mafda682e8a" y="97.587045"/>
     <use style="fill:#1f77b4;stroke:#1f77b4;stroke-width:3;" x="163.682653" xlink:href="#mafda682e8a" y="123.848129"/>
     <use style="fill:#1f77b4;stroke:#1f77b4;stroke-width:3;" x="186.120894" xlink:href="#mafda682e8a" y="147.038069"/>
     <use style="fill:#1f77b4;stroke:#1f77b4;stroke-width:3;" x="175.446368" xlink:href="#mafda682e8a" y="119.693398"/>
     <use style="fill:#1f77b4;stroke:#1f77b4;stroke-width:3;" x="198.420111" xlink:href="#mafda682e8a" y="150.223844"/>
     <use style="fill:#1f77b4;stroke:#1f77b4;stroke-width:3;" x="173.043042" xlink:href="#mafda682e8a" y="131.09062"/>
     <use style="fill:#1f77b4;stroke:#1f77b4;stroke-width:3;" x="174.685764" xlink:href="#mafda682e8a" y="126.859439"/>
     <use style="fill:#1f77b4;stroke:#1f77b4;stroke-width:3;" x="171.588078" xlink:href="#mafda682e8a" y="173.541461"/>
     <use style="fill:#1f77b4;stroke:#1f77b4;stroke-width:3;" x="171.152528" xlink:href="#mafda682e8a" y="161.397188"/>
     <use style="fill:#1f77b4;stroke:#1f77b4;stroke-width:3;" x="218.555341" xlink:href="#mafda682e8a" y="129.468933"/>
     <use style="fill:#1f77b4;stroke:#1f77b4;stroke-width:3;" x="220.545262" xlink:href="#mafda682e8a" y="119.430647"/>
     <use style="fill:#1f77b4;stroke:#1f77b4;stroke-width:3;" x="224.626778" xlink:href="#mafda682e8a" y="132.093352"/>
     <use style="fill:#1f77b4;stroke:#1f77b4;stroke-width:3;" x="234.805496" xlink:href="#mafda682e8a" y="138.277461"/>
     <use style="fill:#1f77b4;stroke:#1f77b4;stroke-width:3;" x="228.903568" xlink:href="#mafda682e8a" y="136.447334"/>
     <use style="fill:#1f77b4;stroke:#1f77b4;stroke-width:3;" x="229.58267" xlink:href="#mafda682e8a" y="162.490081"/>
     <use style="fill:#1f77b4;stroke:#1f77b4;stroke-width:3;" x="240.574795" xlink:href="#mafda682e8a" y="96.541137"/>
     <use style="fill:#1f77b4;stroke:#1f77b4;stroke-width:3;" x="243.908809" xlink:href="#mafda682e8a" y="181.484904"/>
     <use style="fill:#1f77b4;stroke:#1f77b4;stroke-width:3;" x="226.809333" xlink:href="#mafda682e8a" y="147.246818"/>
     <use style="fill:#1f77b4;stroke:#1f77b4;stroke-width:3;" x="251.950924" xlink:href="#mafda682e8a" y="123.741813"/>
     <use style="fill:#1f77b4;stroke:#1f77b4;stroke-width:3;" x="248.196857" xlink:href="#mafda682e8a" y="135.610343"/>
     <use style="fill:#1f77b4;stroke:#1f77b4;stroke-width:3;" x="281.019107" xlink:href="#mafda682e8a" y="169.480724"/>
     <use style="fill:#1f77b4;stroke:#1f77b4;stroke-width:3;" x="280.89163" xlink:href="#mafda682e8a" y="114.83991"/>
     <use style="fill:#1f77b4;stroke:#1f77b4;stroke-width:3;" x="286.606328" xlink:href="#mafda682e8a" y="115.415612"/>
     <use style="fill:#1f77b4;stroke:#1f77b4;stroke-width:3;" x="268.242711" xlink:href="#mafda682e8a" y="127.495266"/>
     <use style="fill:#1f77b4;stroke:#1f77b4;stroke-width:3;" x="273.826898" xlink:href="#mafda682e8a" y="134.888809"/>
     <use style="fill:#1f77b4;stroke:#1f77b4;stroke-width:3;" x="275.952246" xlink:href="#mafda682e8a" y="114.022903"/>
     <use style="fill:#1f77b4;stroke:#1f77b4;stroke-width:3;" x="288.066261" xlink:href="#mafda682e8a" y="128.94527"/>
     <use style="fill:#1f77b4;stroke:#1f77b4;stroke-width:3;" x="284.702163" xlink:href="#mafda682e8a" y="164.418895"/>
     <use style="fill:#1f77b4;stroke:#1f77b4;stroke-width:3;" x="306.814091" xlink:href="#mafda682e8a" y="120.101885"/>
     <use style="fill:#1f77b4;stroke:#1f77b4;stroke-width:3;" x="298.215243" xlink:href="#mafda682e8a" y="186.155188"/>
     <use style="fill:#1f77b4;stroke:#1f77b4;stroke-width:3;" x="292.609664" xlink:href="#mafda682e8a" y="120.736634"/>
     <use style="fill:#1f77b4;stroke:#1f77b4;stroke-width:3;" x="321.010909" xlink:href="#mafda682e8a" y="137.184233"/>
     <use style="fill:#1f77b4;stroke:#1f77b4;stroke-width:3;" x="318.39816" xlink:href="#mafda682e8a" y="148.259212"/>
     <use style="fill:#1f77b4;stroke:#1f77b4;stroke-width:3;" x="319.623231" xlink:href="#mafda682e8a" y="153.454461"/>
     <use style="fill:#1f77b4;stroke:#1f77b4;stroke-width:3;" x="315.61731" xlink:href="#mafda682e8a" y="136.673541"/>
     <use style="fill:#1f77b4;stroke:#1f77b4;stroke-width:3;" x="312.943679" xlink:href="#mafda682e8a" y="127.748729"/>
     <use style="fill:#1f77b4;stroke:#1f77b4;stroke-width:3;" x="288.066261" xlink:href="#mafda682e8a" y="133.576526"/>
     <use style="fill:#1f77b4;stroke:#1f77b4;stroke-width:3;" x="365.330646" xlink:href="#mafda682e8a" y="128.05982"/>
     <use style="fill:#1f77b4;stroke:#1f77b4;stroke-width:3;" x="355.081486" xlink:href="#mafda682e8a" y="157.414529"/>
     <use style="fill:#1f77b4;stroke:#1f77b4;stroke-width:3;" x="352.101183" xlink:href="#mafda682e8a" y="126.867157"/>
     <use style="fill:#1f77b4;stroke:#1f77b4;stroke-width:3;" x="349.625626" xlink:href="#mafda682e8a" y="138.292736"/>
     <use style="fill:#1f77b4;stroke:#1f77b4;stroke-width:3;" x="334.33822" xlink:href="#mafda682e8a" y="141.204428"/>
     <use style="fill:#1f77b4;stroke:#1f77b4;stroke-width:3;" x="337.874295" xlink:href="#mafda682e8a" y="368.720407"/>
     <use style="fill:#1f77b4;stroke:#1f77b4;stroke-width:3;" x="345.250099" xlink:href="#mafda682e8a" y="139.769137"/>
     <use style="fill:#1f77b4;stroke:#1f77b4;stroke-width:3;" x="358.836062" xlink:href="#mafda682e8a" y="111.416203"/>
     <use style="fill:#1f77b4;stroke:#1f77b4;stroke-width:3;" x="340.837786" xlink:href="#mafda682e8a" y="140.289103"/>
     <use style="fill:#1f77b4;stroke:#1f77b4;stroke-width:3;" x="339.770787" xlink:href="#mafda682e8a" y="89.774829"/>
     <use style="fill:#1f77b4;stroke:#1f77b4;stroke-width:3;" x="332.244674" xlink:href="#mafda682e8a" y="93.750181"/>
     <use style="fill:#1f77b4;stroke:#1f77b4;stroke-width:3;" x="356.361132" xlink:href="#mafda682e8a" y="180.531299"/>
     <use style="fill:#1f77b4;stroke:#1f77b4;stroke-width:3;" x="347.881324" xlink:href="#mafda682e8a" y="200.009469"/>
     <use style="fill:#1f77b4;stroke:#1f77b4;stroke-width:3;" x="350.494103" xlink:href="#mafda682e8a" y="151.841862"/>
     <use style="fill:#1f77b4;stroke:#1f77b4;stroke-width:3;" x="374.194882" xlink:href="#mafda682e8a" y="136.104138"/>
     <use style="fill:#1f77b4;stroke:#1f77b4;stroke-width:3;" x="410.7271" xlink:href="#mafda682e8a" y="84.528259"/>
     <use style="fill:#1f77b4;stroke:#1f77b4;stroke-width:3;" x="395.10904" xlink:href="#mafda682e8a" y="113.09102"/>
     <use style="fill:#1f77b4;stroke:#1f77b4;stroke-width:3;" x="383.208714" xlink:href="#mafda682e8a" y="119.786333"/>
     <use style="fill:#1f77b4;stroke:#1f77b4;stroke-width:3;" x="398.926482" xlink:href="#mafda682e8a" y="143.207504"/>
     <use style="fill:#1f77b4;stroke:#1f77b4;stroke-width:3;" x="402.280279" xlink:href="#mafda682e8a" y="332.780064"/>
     <use style="fill:#1f77b4;stroke:#1f77b4;stroke-width:3;" x="375.949736" xlink:href="#mafda682e8a" y="117.872631"/>
     <use style="fill:#1f77b4;stroke:#1f77b4;stroke-width:3;" x="398.356562" xlink:href="#mafda682e8a" y="104.631839"/>
     <use style="fill:#1f77b4;stroke:#1f77b4;stroke-width:3;" x="372.910776" xlink:href="#mafda682e8a" y="182.087092"/>
     <use style="fill:#1f77b4;stroke:#1f77b4;stroke-width:3;" x="430.730511" xlink:href="#mafda682e8a" y="182.832584"/>
     <use style="fill:#1f77b4;stroke:#1f77b4;stroke-width:3;" x="415.799128" xlink:href="#mafda682e8a" y="133.458909"/>
    </g>
   </g>
   <g id="line2d_19">
    <g clip-path="url(#p3a07ecd53f)">
     <use style="fill:#1f77b4;stroke:#1f77b4;stroke-width:3;" x="94.322261" xlink:href="#mafda682e8a" y="157.896487"/>
     <use style="fill:#1f77b4;stroke:#1f77b4;stroke-width:3;" x="65.545343" xlink:href="#mafda682e8a" y="201.488424"/>
     <use style="fill:#1f77b4;stroke:#1f77b4;stroke-width:3;" x="92.555069" xlink:href="#mafda682e8a" y="111.331853"/>
     <use style="fill:#1f77b4;stroke:#1f77b4;stroke-width:3;" x="74.89677" xlink:href="#mafda682e8a" y="190.28491"/>
     <use style="fill:#1f77b4;stroke:#1f77b4;stroke-width:3;" x="85.557194" xlink:href="#mafda682e8a" y="157.074831"/>
     <use style="fill:#1f77b4;stroke:#1f77b4;stroke-width:3;" x="82.258701" xlink:href="#mafda682e8a" y="142.36724"/>
     <use style="fill:#1f77b4;stroke:#1f77b4;stroke-width:3;" x="88.243122" xlink:href="#mafda682e8a" y="-1"/>
     <use style="fill:#1f77b4;stroke:#1f77b4;stroke-width:3;" x="92.945324" xlink:href="#mafda682e8a" y="-1"/>
     <use style="fill:#1f77b4;stroke:#1f77b4;stroke-width:3;" x="108.812414" xlink:href="#mafda682e8a" y="107.218763"/>
     <use style="fill:#1f77b4;stroke:#1f77b4;stroke-width:3;" x="117.776597" xlink:href="#mafda682e8a" y="215.252811"/>
     <use style="fill:#1f77b4;stroke:#1f77b4;stroke-width:3;" x="102.947561" xlink:href="#mafda682e8a" y="196.18792"/>
     <use style="fill:#1f77b4;stroke:#1f77b4;stroke-width:3;" x="100.809815" xlink:href="#mafda682e8a" y="224.853833"/>
     <use style="fill:#1f77b4;stroke:#1f77b4;stroke-width:3;" x="101.028461" xlink:href="#mafda682e8a" y="104.853"/>
     <use style="fill:#1f77b4;stroke:#1f77b4;stroke-width:3;" x="108.161444" xlink:href="#mafda682e8a" y="111.492706"/>
     <use style="fill:#1f77b4;stroke:#1f77b4;stroke-width:3;" x="114.673927" xlink:href="#mafda682e8a" y="135.726241"/>
     <use style="fill:#1f77b4;stroke:#1f77b4;stroke-width:3;" x="100.724529" xlink:href="#mafda682e8a" y="100.491073"/>
     <use style="fill:#1f77b4;stroke:#1f77b4;stroke-width:3;" x="95.374679" xlink:href="#mafda682e8a" y="162.469738"/>
     <use style="fill:#1f77b4;stroke:#1f77b4;stroke-width:3;" x="95.729409" xlink:href="#mafda682e8a" y="185.998177"/>
     <use style="fill:#1f77b4;stroke:#1f77b4;stroke-width:3;" x="103.350628" xlink:href="#mafda682e8a" y="213.883038"/>
     <use style="fill:#1f77b4;stroke:#1f77b4;stroke-width:3;" x="108.316232" xlink:href="#mafda682e8a" y="162.104025"/>
     <use style="fill:#1f77b4;stroke:#1f77b4;stroke-width:3;" x="112.917884" xlink:href="#mafda682e8a" y="180.241266"/>
     <use style="fill:#1f77b4;stroke:#1f77b4;stroke-width:3;" x="111.917364" xlink:href="#mafda682e8a" y="147.596135"/>
     <use style="fill:#1f77b4;stroke:#1f77b4;stroke-width:3;" x="128.090104" xlink:href="#mafda682e8a" y="113.022976"/>
     <use style="fill:#1f77b4;stroke:#1f77b4;stroke-width:3;" x="135.881861" xlink:href="#mafda682e8a" y="145.423782"/>
     <use style="fill:#1f77b4;stroke:#1f77b4;stroke-width:3;" x="142.331959" xlink:href="#mafda682e8a" y="97.899254"/>
     <use style="fill:#1f77b4;stroke:#1f77b4;stroke-width:3;" x="118.487038" xlink:href="#mafda682e8a" y="180.841628"/>
     <use style="fill:#1f77b4;stroke:#1f77b4;stroke-width:3;" x="135.951477" xlink:href="#mafda682e8a" y="137.445025"/>
     <use style="fill:#1f77b4;stroke:#1f77b4;stroke-width:3;" x="123.844735" xlink:href="#mafda682e8a" y="34.48142"/>
     <use style="fill:#1f77b4;stroke:#1f77b4;stroke-width:3;" x="132.57162" xlink:href="#mafda682e8a" y="164.922984"/>
     <use style="fill:#1f77b4;stroke:#1f77b4;stroke-width:3;" x="116.845512" xlink:href="#mafda682e8a" y="147.183725"/>
     <use style="fill:#1f77b4;stroke:#1f77b4;stroke-width:3;" x="127.793581" xlink:href="#mafda682e8a" y="105.223292"/>
     <use style="fill:#1f77b4;stroke:#1f77b4;stroke-width:3;" x="121.100183" xlink:href="#mafda682e8a" y="116.588695"/>
     <use style="fill:#1f77b4;stroke:#1f77b4;stroke-width:3;" x="136.290662" xlink:href="#mafda682e8a" y="138.530106"/>
     <use style="fill:#1f77b4;stroke:#1f77b4;stroke-width:3;" x="161.288712" xlink:href="#mafda682e8a" y="119.006533"/>
     <use style="fill:#1f77b4;stroke:#1f77b4;stroke-width:3;" x="155.899503" xlink:href="#mafda682e8a" y="108.447316"/>
     <use style="fill:#1f77b4;stroke:#1f77b4;stroke-width:3;" x="153.117682" xlink:href="#mafda682e8a" y="126.945643"/>
     <use style="fill:#1f77b4;stroke:#1f77b4;stroke-width:3;" x="158.915685" xlink:href="#mafda682e8a" y="91.114997"/>
     <use style="fill:#1f77b4;stroke:#1f77b4;stroke-width:3;" x="145.554297" xlink:href="#mafda682e8a" y="113.931631"/>
     <use style="fill:#1f77b4;stroke:#1f77b4;stroke-width:3;" x="156.307676" xlink:href="#mafda682e8a" y="73.954494"/>
     <use style="fill:#1f77b4;stroke:#1f77b4;stroke-width:3;" x="148.640326" xlink:href="#mafda682e8a" y="114.999111"/>
     <use style="fill:#1f77b4;stroke:#1f77b4;stroke-width:3;" x="163.261206" xlink:href="#mafda682e8a" y="72.517415"/>
     <use style="fill:#1f77b4;stroke:#1f77b4;stroke-width:3;" x="163.682653" xlink:href="#mafda682e8a" y="76.805912"/>
     <use style="fill:#1f77b4;stroke:#1f77b4;stroke-width:3;" x="186.120894" xlink:href="#mafda682e8a" y="111.477876"/>
     <use style="fill:#1f77b4;stroke:#1f77b4;stroke-width:3;" x="175.446368" xlink:href="#mafda682e8a" y="93.640723"/>
     <use style="fill:#1f77b4;stroke:#1f77b4;stroke-width:3;" x="198.420111" xlink:href="#mafda682e8a" y="112.908028"/>
     <use style="fill:#1f77b4;stroke:#1f77b4;stroke-width:3;" x="173.043042" xlink:href="#mafda682e8a" y="118.290747"/>
     <use style="fill:#1f77b4;stroke:#1f77b4;stroke-width:3;" x="174.685764" xlink:href="#mafda682e8a" y="95.616364"/>
     <use style="fill:#1f77b4;stroke:#1f77b4;stroke-width:3;" x="171.588078" xlink:href="#mafda682e8a" y="133.602533"/>
     <use style="fill:#1f77b4;stroke:#1f77b4;stroke-width:3;" x="171.152528" xlink:href="#mafda682e8a" y="107.80227"/>
     <use style="fill:#1f77b4;stroke:#1f77b4;stroke-width:3;" x="218.555341" xlink:href="#mafda682e8a" y="104.218977"/>
     <use style="fill:#1f77b4;stroke:#1f77b4;stroke-width:3;" x="220.545262" xlink:href="#mafda682e8a" y="98.631319"/>
     <use style="fill:#1f77b4;stroke:#1f77b4;stroke-width:3;" x="224.626778" xlink:href="#mafda682e8a" y="77.714288"/>
     <use style="fill:#1f77b4;stroke:#1f77b4;stroke-width:3;" x="234.805496" xlink:href="#mafda682e8a" y="104.468177"/>
     <use style="fill:#1f77b4;stroke:#1f77b4;stroke-width:3;" x="228.903568" xlink:href="#mafda682e8a" y="80.265578"/>
     <use style="fill:#1f77b4;stroke:#1f77b4;stroke-width:3;" x="229.58267" xlink:href="#mafda682e8a" y="114.972512"/>
     <use style="fill:#1f77b4;stroke:#1f77b4;stroke-width:3;" x="240.574795" xlink:href="#mafda682e8a" y="33.81892"/>
     <use style="fill:#1f77b4;stroke:#1f77b4;stroke-width:3;" x="243.908809" xlink:href="#mafda682e8a" y="129.483954"/>
     <use style="fill:#1f77b4;stroke:#1f77b4;stroke-width:3;" x="226.809333" xlink:href="#mafda682e8a" y="111.944894"/>
     <use style="fill:#1f77b4;stroke:#1f77b4;stroke-width:3;" x="251.950924" xlink:href="#mafda682e8a" y="72.191404"/>
     <use style="fill:#1f77b4;stroke:#1f77b4;stroke-width:3;" x="248.196857" xlink:href="#mafda682e8a" y="84.680786"/>
     <use style="fill:#1f77b4;stroke:#1f77b4;stroke-width:3;" x="281.019107" xlink:href="#mafda682e8a" y="119.376836"/>
     <use style="fill:#1f77b4;stroke:#1f77b4;stroke-width:3;" x="280.89163" xlink:href="#mafda682e8a" y="59.202026"/>
     <use style="fill:#1f77b4;stroke:#1f77b4;stroke-width:3;" x="286.606328" xlink:href="#mafda682e8a" y="80.709802"/>
     <use style="fill:#1f77b4;stroke:#1f77b4;stroke-width:3;" x="268.242711" xlink:href="#mafda682e8a" y="85.84375"/>
     <use style="fill:#1f77b4;stroke:#1f77b4;stroke-width:3;" x="273.826898" xlink:href="#mafda682e8a" y="97.206919"/>
     <use style="fill:#1f77b4;stroke:#1f77b4;stroke-width:3;" x="275.952246" xlink:href="#mafda682e8a" y="56.31855"/>
     <use style="fill:#1f77b4;stroke:#1f77b4;stroke-width:3;" x="288.066261" xlink:href="#mafda682e8a" y="103.714553"/>
     <use style="fill:#1f77b4;stroke:#1f77b4;stroke-width:3;" x="284.702163" xlink:href="#mafda682e8a" y="114.015958"/>
     <use style="fill:#1f77b4;stroke:#1f77b4;stroke-width:3;" x="306.814091" xlink:href="#mafda682e8a" y="104.263174"/>
     <use style="fill:#1f77b4;stroke:#1f77b4;stroke-width:3;" x="298.215243" xlink:href="#mafda682e8a" y="139.063163"/>
     <use style="fill:#1f77b4;stroke:#1f77b4;stroke-width:3;" x="292.609664" xlink:href="#mafda682e8a" y="76.863446"/>
     <use style="fill:#1f77b4;stroke:#1f77b4;stroke-width:3;" x="321.010909" xlink:href="#mafda682e8a" y="89.539854"/>
     <use style="fill:#1f77b4;stroke:#1f77b4;stroke-width:3;" x="318.39816" xlink:href="#mafda682e8a" y="104.094144"/>
     <use style="fill:#1f77b4;stroke:#1f77b4;stroke-width:3;" x="319.623231" xlink:href="#mafda682e8a" y="121.203845"/>
     <use style="fill:#1f77b4;stroke:#1f77b4;stroke-width:3;" x="315.61731" xlink:href="#mafda682e8a" y="89.335332"/>
     <use style="fill:#1f77b4;stroke:#1f77b4;stroke-width:3;" x="312.943679" xlink:href="#mafda682e8a" y="85.181336"/>
     <use style="fill:#1f77b4;stroke:#1f77b4;stroke-width:3;" x="288.066261" xlink:href="#mafda682e8a" y="108.539732"/>
     <use style="fill:#1f77b4;stroke:#1f77b4;stroke-width:3;" x="365.330646" xlink:href="#mafda682e8a" y="87.526987"/>
     <use style="fill:#1f77b4;stroke:#1f77b4;stroke-width:3;" x="355.081486" xlink:href="#mafda682e8a" y="109.320561"/>
     <use style="fill:#1f77b4;stroke:#1f77b4;stroke-width:3;" x="352.101183" xlink:href="#mafda682e8a" y="78.727084"/>
     <use style="fill:#1f77b4;stroke:#1f77b4;stroke-width:3;" x="349.625626" xlink:href="#mafda682e8a" y="92.949568"/>
     <use style="fill:#1f77b4;stroke:#1f77b4;stroke-width:3;" x="334.33822" xlink:href="#mafda682e8a" y="87.043747"/>
     <use style="fill:#1f77b4;stroke:#1f77b4;stroke-width:3;" x="337.874295" xlink:href="#mafda682e8a" y="325.556999"/>
     <use style="fill:#1f77b4;stroke:#1f77b4;stroke-width:3;" x="345.250099" xlink:href="#mafda682e8a" y="97.551761"/>
     <use style="fill:#1f77b4;stroke:#1f77b4;stroke-width:3;" x="358.836062" xlink:href="#mafda682e8a" y="69.861019"/>
     <use style="fill:#1f77b4;stroke:#1f77b4;stroke-width:3;" x="340.837786" xlink:href="#mafda682e8a" y="107.015708"/>
     <use style="fill:#1f77b4;stroke:#1f77b4;stroke-width:3;" x="339.770787" xlink:href="#mafda682e8a" y="53.040768"/>
     <use style="fill:#1f77b4;stroke:#1f77b4;stroke-width:3;" x="332.244674" xlink:href="#mafda682e8a" y="77.161482"/>
     <use style="fill:#1f77b4;stroke:#1f77b4;stroke-width:3;" x="356.361132" xlink:href="#mafda682e8a" y="126.260385"/>
     <use style="fill:#1f77b4;stroke:#1f77b4;stroke-width:3;" x="347.881324" xlink:href="#mafda682e8a" y="147.012046"/>
     <use style="fill:#1f77b4;stroke:#1f77b4;stroke-width:3;" x="350.494103" xlink:href="#mafda682e8a" y="142.289805"/>
     <use style="fill:#1f77b4;stroke:#1f77b4;stroke-width:3;" x="374.194882" xlink:href="#mafda682e8a" y="81.611457"/>
     <use style="fill:#1f77b4;stroke:#1f77b4;stroke-width:3;" x="410.7271" xlink:href="#mafda682e8a" y="64.499061"/>
     <use style="fill:#1f77b4;stroke:#1f77b4;stroke-width:3;" x="395.10904" xlink:href="#mafda682e8a" y="106.969002"/>
     <use style="fill:#1f77b4;stroke:#1f77b4;stroke-width:3;" x="383.208714" xlink:href="#mafda682e8a" y="101.746929"/>
     <use style="fill:#1f77b4;stroke:#1f77b4;stroke-width:3;" x="398.926482" xlink:href="#mafda682e8a" y="127.410609"/>
     <use style="fill:#1f77b4;stroke:#1f77b4;stroke-width:3;" x="402.280279" xlink:href="#mafda682e8a" y="300.140637"/>
     <use style="fill:#1f77b4;stroke:#1f77b4;stroke-width:3;" x="375.949736" xlink:href="#mafda682e8a" y="92.273037"/>
     <use style="fill:#1f77b4;stroke:#1f77b4;stroke-width:3;" x="398.356562" xlink:href="#mafda682e8a" y="53.751336"/>
     <use style="fill:#1f77b4;stroke:#1f77b4;stroke-width:3;" x="372.910776" xlink:href="#mafda682e8a" y="144.700939"/>
     <use style="fill:#1f77b4;stroke:#1f77b4;stroke-width:3;" x="430.730511" xlink:href="#mafda682e8a" y="140.574797"/>
     <use style="fill:#1f77b4;stroke:#1f77b4;stroke-width:3;" x="415.799128" xlink:href="#mafda682e8a" y="85.801325"/>
    </g>
   </g>
   <g id="line2d_20">
    <path clip-path="url(#p3a07ecd53f)" d="M 47.258972 125.045 
L 438.44634 125.045 
" style="fill:none;stroke:#ff7f0e;stroke-linecap:square;stroke-width:1.5;"/>
   </g>
   <g id="line2d_21"/>
   <g id="patch_3">
    <path d="M 41.972656 287.9 
L 41.972656 10.7 
" style="fill:none;stroke:#000000;stroke-linecap:square;stroke-linejoin:miter;stroke-width:0.8;"/>
   </g>
   <g id="patch_4">
    <path d="M 443.732656 287.9 
L 443.732656 10.7 
" style="fill:none;stroke:#000000;stroke-linecap:square;stroke-linejoin:miter;stroke-width:0.8;"/>
   </g>
   <g id="patch_5">
    <path d="M 41.972656 287.9 
L 443.732656 287.9 
" style="fill:none;stroke:#000000;stroke-linecap:square;stroke-linejoin:miter;stroke-width:0.8;"/>
   </g>
   <g id="patch_6">
    <path d="M 41.972656 10.7 
L 443.732656 10.7 
" style="fill:none;stroke:#000000;stroke-linecap:square;stroke-linejoin:miter;stroke-width:0.8;"/>
   </g>
  </g>
 </g>
 <defs>
  <clipPath id="p3a07ecd53f">
   <rect height="277.2" width="401.76" x="41.972656" y="10.7"/>
  </clipPath>
 </defs>
</svg>
